<?xml version="1.0" standalone="no"?>
<!DOCTYPE svg PUBLIC "-//W3C//DTD SVG 20010904//EN"
 "http://www.w3.org/TR/2001/REC-SVG-20010904/DTD/svg10.dtd">
<svg version="1.0" xmlns="http://www.w3.org/2000/svg"
 width="230.000000pt" height="300.000000pt" viewBox="0 0 230.000000 300.000000"
 preserveAspectRatio="xMidYMid meet">

<g transform="translate(0.000000,300.000000) scale(0.100000,-0.100000)"
fill="#000000" stroke="none">
<path d="M0 1500 l0 -1500 1150 0 1150 0 0 1500 0 1500 -1150 0 -1150 0 0
-1500z m1285 1108 c90 -19 187 -73 269 -149 63 -59 84 -87 121 -163 50 -101
65 -163 65 -272 0 -101 -15 -165 -62 -262 -66 -139 -192 -250 -344 -302 -65
-23 -117 -26 -132 -7 -13 16 -20 171 -7 175 6 1 11 -15 13 -35 1 -21 5 -57 8
-80 5 -39 8 -43 33 -43 45 0 141 37 209 82 130 84 216 216 248 379 16 82 16
92 -1 184 -23 132 -68 218 -159 310 -95 96 -202 150 -329 167 -120 16 -203 1
-323 -57 -74 -36 -103 -57 -150 -108 -119 -130 -165 -246 -165 -416 0 -232
175 -459 411 -532 79 -24 86 -19 89 73 1 45 8 71 22 91 l20 28 -24 19 c-155
122 -151 114 -144 318 4 92 10 227 13 300 l7 132 33 0 c18 0 36 -6 41 -12 4
-7 10 -98 13 -203 4 -160 7 -190 20 -190 13 0 15 29 18 189 3 197 7 216 46
216 43 0 46 -14 46 -206 0 -153 2 -184 16 -195 28 -23 34 9 34 197 0 193 3
204 51 204 26 0 26 -1 32 -92 24 -342 28 -479 17 -513 -9 -26 -38 -57 -117
-122 -57 -47 -109 -97 -114 -110 -5 -13 -9 -50 -9 -82 0 -65 -11 -81 -55 -81
-87 0 -233 76 -325 169 -146 148 -202 360 -150 567 27 106 61 173 123 241 160
175 363 240 592 191z m-995 -1511 c7 -109 23 -131 100 -131 38 0 55 5 75 24
23 22 25 30 25 112 0 74 3 88 16 88 14 0 15 -14 12 -100 -3 -93 -5 -101 -30
-127 -22 -21 -38 -27 -85 -30 -106 -7 -139 31 -145 170 -4 76 -2 87 11 85 13
-3 17 -22 21 -91z m711 82 c29 -15 39 -49 24 -85 -10 -25 -10 -34 1 -49 19
-26 17 -48 -7 -79 -20 -25 -24 -26 -130 -26 l-109 0 0 125 0 125 101 0 c55 0
109 -5 120 -11z m529 -4 c0 -11 -20 -15 -102 -17 l-103 -3 -3 -37 -3 -38 76 0
c57 0 76 -3 73 -12 -3 -8 -31 -15 -74 -18 l-69 -5 0 -40 0 -40 108 -3 c151 -4
137 -22 -18 -22 l-125 0 0 125 0 125 120 0 c99 0 120 -3 120 -15z m504 -6 c23
-18 27 -28 24 -62 -2 -34 -8 -44 -33 -57 -16 -8 -32 -16 -34 -17 -8 -4 52 -68
71 -75 11 -4 16 -12 13 -18 -14 -22 -44 -7 -81 40 l-39 49 -62 1 -63 0 0 -45
c0 -33 -4 -45 -15 -45 -13 0 -15 21 -15 125 l0 125 104 0 c90 0 107 -3 130
-21z m-1544 -449 c0 -5 -42 -11 -92 -12 l-93 -3 0 -40 0 -40 83 -3 c109 -4
106 -22 -4 -22 l-85 0 3 -47 3 -48 103 -3 c141 -4 131 -22 -13 -22 l-115 0 0
125 0 125 105 0 c61 0 105 -4 105 -10z m504 -110 c36 -65 66 -122 66 -125 0
-3 -6 -5 -13 -5 -7 0 -21 16 -30 35 l-17 35 -93 0 -93 0 -17 -35 c-9 -19 -24
-35 -33 -35 -13 0 -12 7 9 43 13 23 41 74 62 112 71 130 74 130 159 -25z m546
110 c0 -5 -25 -10 -55 -10 l-55 0 0 -115 c0 -96 -3 -115 -15 -115 -12 0 -15
19 -15 115 l0 115 -55 0 c-30 0 -55 5 -55 10 0 6 48 10 125 10 77 0 125 -4
125 -10z m477 -5 c2 -7 -21 -9 -65 -7 -54 3 -72 1 -85 -13 -37 -36 -5 -64 92
-80 45 -7 81 -34 81 -61 0 -8 -13 -29 -29 -45 -25 -25 -37 -29 -85 -29 -30 0
-66 4 -80 10 -33 12 -35 35 -3 25 56 -17 117 -17 142 -1 55 36 20 74 -84 91
-45 7 -81 34 -81 60 0 9 11 27 25 41 23 23 32 25 97 22 39 -2 73 -8 75 -13z"/>
<path d="M996 2338 c-3 -40 -11 -160 -16 -267 -12 -233 -11 -236 98 -325 l73
-59 32 30 c18 16 51 44 73 61 68 52 69 60 55 346 -7 138 -15 259 -17 269 -3 9
-12 17 -20 17 -12 0 -14 -31 -14 -188 0 -197 -3 -212 -45 -212 -42 0 -45 15
-45 207 0 159 -2 184 -16 190 -30 11 -34 -20 -28 -182 7 -186 1 -215 -45 -215
-20 0 -34 7 -41 19 -6 12 -10 95 -10 200 0 149 -2 181 -14 181 -11 0 -16 -19
-20 -72z"/>
<path d="M810 1120 l0 -41 86 3 c76 3 88 6 101 24 12 19 12 24 -2 38 -13 12
-36 16 -101 16 l-84 0 0 -40z"/>
<path d="M810 1005 l0 -45 78 0 c83 0 122 16 122 49 0 33 -22 41 -112 41 l-88
0 0 -45z"/>
<path d="M1830 1110 l0 -50 78 0 c87 0 122 16 122 55 0 35 -27 45 -119 45
l-81 0 0 -50z"/>
<path d="M866 645 c-20 -36 -36 -68 -36 -70 0 -3 36 -5 79 -5 l80 0 -35 63
c-20 34 -39 66 -43 70 -5 5 -25 -21 -45 -58z"/>
</g>
</svg>
